<svg width="16" height="16" viewBox="0 0 16 16" fill="none" xmlns="http://www.w3.org/2000/svg">
<path d="M12.9091 0.5H3.09091C2.80158 0.5 2.5241 0.621566 2.31952 0.837954C2.11493 1.05434 2 1.34783 2 1.65385V14.3462C2 14.6522 2.11493 14.9457 2.31952 15.162C2.5241 15.3784 2.80158 15.5 3.09091 15.5H12.9091C13.1984 15.5 13.4759 15.3784 13.6805 15.162C13.8851 14.9457 14 14.6522 14 14.3462V1.65385C14 1.34783 13.8851 1.05434 13.6805 0.837954C13.4759 0.621566 13.1984 0.5 12.9091 0.5ZM5.27273 13.1923C5.11091 13.1923 4.95272 13.1416 4.81817 13.0465C4.68362 12.9514 4.57875 12.8162 4.51683 12.6581C4.4549 12.5 4.4387 12.326 4.47027 12.1581C4.50184 11.9902 4.57976 11.836 4.69419 11.715C4.80861 11.594 4.9544 11.5116 5.11311 11.4782C5.27182 11.4448 5.43633 11.4619 5.58583 11.5274C5.73534 11.5929 5.86312 11.7038 5.95302 11.8461C6.04292 11.9885 6.09091 12.1558 6.09091 12.3269C6.09091 12.5564 6.00471 12.7766 5.85127 12.9388C5.69783 13.1011 5.48972 13.1923 5.27273 13.1923ZM5.27273 10.3077C5.11091 10.3077 4.95272 10.2569 4.81817 10.1618C4.68362 10.0668 4.57875 9.9316 4.51683 9.77348C4.4549 9.61535 4.4387 9.44135 4.47027 9.27348C4.50184 9.10561 4.57976 8.95141 4.69419 8.83039C4.80861 8.70936 4.9544 8.62694 5.11311 8.59355C5.27182 8.56016 5.43633 8.5773 5.58583 8.6428C5.73534 8.7083 5.86312 8.81921 5.95302 8.96153C6.04292 9.10384 6.09091 9.27115 6.09091 9.44231C6.09091 9.67182 6.00471 9.89194 5.85127 10.0542C5.69783 10.2165 5.48972 10.3077 5.27273 10.3077ZM8 13.1923C7.83818 13.1923 7.67999 13.1416 7.54544 13.0465C7.41089 12.9514 7.30602 12.8162 7.2441 12.6581C7.18217 12.5 7.16597 12.326 7.19754 12.1581C7.22911 11.9902 7.30703 11.836 7.42146 11.715C7.53588 11.594 7.68167 11.5116 7.84038 11.4782C7.99909 11.4448 8.1636 11.4619 8.3131 11.5274C8.46261 11.5929 8.59039 11.7038 8.68029 11.8461C8.7702 11.9885 8.81818 12.1558 8.81818 12.3269C8.81818 12.5564 8.73198 12.7766 8.57854 12.9388C8.4251 13.1011 8.217 13.1923 8 13.1923ZM8 10.3077C7.83818 10.3077 7.67999 10.2569 7.54544 10.1618C7.41089 10.0668 7.30602 9.9316 7.2441 9.77348C7.18217 9.61535 7.16597 9.44135 7.19754 9.27348C7.22911 9.10561 7.30703 8.95141 7.42146 8.83039C7.53588 8.70936 7.68167 8.62694 7.84038 8.59355C7.99909 8.56016 8.1636 8.5773 8.3131 8.6428C8.46261 8.7083 8.59039 8.81921 8.68029 8.96153C8.7702 9.10384 8.81818 9.27115 8.81818 9.44231C8.81818 9.67182 8.73198 9.89194 8.57854 10.0542C8.4251 10.2165 8.217 10.3077 8 10.3077ZM10.7273 13.1923C10.5655 13.1923 10.4073 13.1416 10.2727 13.0465C10.1382 12.9514 10.0333 12.8162 9.97137 12.6581C9.90945 12.5 9.89324 12.326 9.92481 12.1581C9.95638 11.9902 10.0343 11.836 10.1487 11.715C10.2632 11.594 10.4089 11.5116 10.5677 11.4782C10.7264 11.4448 10.8909 11.4619 11.0404 11.5274C11.1899 11.5929 11.3177 11.7038 11.4076 11.8461C11.4975 11.9885 11.5455 12.1558 11.5455 12.3269C11.5455 12.5564 11.4593 12.7766 11.3058 12.9388C11.1524 13.1011 10.9443 13.1923 10.7273 13.1923ZM10.7273 10.3077C10.5655 10.3077 10.4073 10.2569 10.2727 10.1618C10.1382 10.0668 10.0333 9.9316 9.97137 9.77348C9.90945 9.61535 9.89324 9.44135 9.92481 9.27348C9.95638 9.10561 10.0343 8.95141 10.1487 8.83039C10.2632 8.70936 10.4089 8.62694 10.5677 8.59355C10.7264 8.56016 10.8909 8.5773 11.0404 8.6428C11.1899 8.7083 11.3177 8.81921 11.4076 8.96153C11.4975 9.10384 11.5455 9.27115 11.5455 9.44231C11.5455 9.67182 11.4593 9.89194 11.3058 10.0542C11.1524 10.2165 10.9443 10.3077 10.7273 10.3077ZM11.8182 6.26923C11.8182 6.42224 11.7607 6.56898 11.6584 6.67718C11.5561 6.78537 11.4174 6.84615 11.2727 6.84615H4.72727C4.58261 6.84615 4.44387 6.78537 4.34158 6.67718C4.23929 6.56898 4.18182 6.42224 4.18182 6.26923V3.38462C4.18182 3.23161 4.23929 3.08486 4.34158 2.97667C4.44387 2.86848 4.58261 2.80769 4.72727 2.80769H11.2727C11.4174 2.80769 11.5561 2.86848 11.6584 2.97667C11.7607 3.08486 11.8182 3.23161 11.8182 3.38462V6.26923Z" fill="#AD1A33"/>
</svg>
