<svg width="16" height="16" viewBox="0 0 16 16" fill="none" xmlns="http://www.w3.org/2000/svg">
<path d="M5.60034 6.4001C6.23686 6.4001 6.84731 6.14724 7.2974 5.69715C7.74748 5.24707 8.00034 4.63662 8.00034 4.0001C8.00034 3.36358 7.74748 2.75313 7.2974 2.30304C6.84731 1.85295 6.23686 1.6001 5.60034 1.6001C4.96382 1.6001 4.35337 1.85295 3.90328 2.30304C3.4532 2.75313 3.20034 3.36358 3.20034 4.0001C3.20034 4.63662 3.4532 5.24707 3.90328 5.69715C4.35337 6.14724 4.96382 6.4001 5.60034 6.4001ZM11.6003 7.2001C12.1308 7.2001 12.6395 6.98938 13.0146 6.61431C13.3896 6.23924 13.6003 5.73053 13.6003 5.2001C13.6003 4.66966 13.3896 4.16096 13.0146 3.78588C12.6395 3.41081 12.1308 3.2001 11.6003 3.2001C11.0699 3.2001 10.5612 3.41081 10.1861 3.78588C9.81105 4.16096 9.60034 4.66966 9.60034 5.2001C9.60034 5.73053 9.81105 6.23924 10.1861 6.61431C10.5612 6.98938 11.0699 7.2001 11.6003 7.2001ZM1.29234 13.1425C1.13549 13.0447 1.0095 12.9046 0.928952 12.7383C0.8484 12.5719 0.816569 12.3862 0.837139 12.2025C0.984623 11.0433 1.54974 9.97775 2.42659 9.20539C3.30344 8.43304 4.43184 8.00694 5.60034 8.00694C6.76884 8.00694 7.89724 8.43304 8.77409 9.20539C9.65094 9.97775 10.2161 11.0433 10.3635 12.2025C10.4099 12.5761 10.2259 12.9385 9.90754 13.1417C8.62214 13.9654 7.12702 14.4022 5.60034 14.4001C4.07346 14.4026 2.57806 13.9661 1.29234 13.1425ZM11.6003 12.8001H11.5155C11.5715 12.5625 11.5859 12.3113 11.5539 12.0537C11.4172 10.9539 10.9774 9.91387 10.2835 9.0497C10.73 8.87401 11.2071 8.7893 11.6868 8.80056C12.1665 8.81182 12.6391 8.91882 13.0769 9.11527C13.5146 9.31172 13.9087 9.59366 14.236 9.94453C14.5633 10.2954 14.8172 10.7081 14.9827 11.1585C15.0336 11.3023 15.0327 11.4593 14.9801 11.6024C14.9275 11.7456 14.8266 11.8658 14.6947 11.9425C13.7609 12.5055 12.6908 12.8021 11.6003 12.8001Z" fill="#AD1A33"/>
</svg>
