<svg width="16" height="16" viewBox="0 0 16 16" fill="none" xmlns="http://www.w3.org/2000/svg">
<path d="M14.7692 2H1.23077C0.904349 2 0.591298 2.11493 0.360484 2.31952C0.12967 2.5241 0 2.80158 0 3.09091V12.9091C0 13.1984 0.12967 13.4759 0.360484 13.6805C0.591298 13.8851 0.904349 14 1.23077 14H14.7692C15.0957 14 15.4087 13.8851 15.6395 13.6805C15.8703 13.4759 16 13.1984 16 12.9091V3.09091C16 2.80158 15.8703 2.5241 15.6395 2.31952C15.4087 2.11493 15.0957 2 14.7692 2ZM5.29231 9.2C5.42288 9.2868 5.5092 9.41601 5.53228 9.55922C5.55536 9.70243 5.51331 9.84791 5.41538 9.96364C5.31746 10.0794 5.17168 10.1559 5.01011 10.1763C4.84854 10.1968 4.68441 10.1595 4.55385 10.0727L2.09231 8.43636C2.01588 8.38556 1.95385 8.31967 1.91112 8.24394C1.8684 8.1682 1.84615 8.08468 1.84615 8C1.84615 7.91532 1.8684 7.83181 1.91112 7.75607C1.95385 7.68033 2.01588 7.61444 2.09231 7.56364L4.55385 5.92727C4.68441 5.84047 4.84854 5.80321 5.01011 5.82366C5.17168 5.84412 5.31746 5.92063 5.41538 6.03636C5.51331 6.15209 5.55536 6.29757 5.53228 6.44078C5.5092 6.58398 5.42288 6.7132 5.29231 6.8L3.48692 8L5.29231 9.2ZM9.82231 4.33182L7.36077 11.9682C7.33979 12.0383 7.30325 12.104 7.2533 12.1614C7.20334 12.2188 7.14096 12.2668 7.06982 12.3026C6.99867 12.3384 6.92019 12.3613 6.83895 12.3699C6.75771 12.3785 6.67536 12.3727 6.5967 12.3527C6.51804 12.3328 6.44466 12.2991 6.38084 12.2538C6.31703 12.2084 6.26407 12.1522 6.22505 12.0884C6.18604 12.0247 6.16175 11.9547 6.15362 11.8825C6.14549 11.8104 6.15367 11.7375 6.17769 11.6682L8.63923 4.03182C8.68654 3.89527 8.79239 3.78063 8.93404 3.71251C9.07569 3.6444 9.24183 3.62825 9.39676 3.66754C9.5517 3.70682 9.68306 3.79841 9.76263 3.92262C9.8422 4.04684 9.86363 4.19376 9.82231 4.33182ZM13.9077 8.43636L11.4462 10.0727C11.3156 10.1595 11.1515 10.1968 10.9899 10.1763C10.8283 10.1559 10.6825 10.0794 10.5846 9.96364C10.4867 9.84791 10.4446 9.70243 10.4677 9.55922C10.4908 9.41601 10.5771 9.2868 10.7077 9.2L12.5131 8L10.7077 6.8C10.643 6.75702 10.5886 6.70318 10.5474 6.64154C10.5062 6.57991 10.4792 6.51169 10.4677 6.44078C10.4563 6.36987 10.4607 6.29765 10.4808 6.22826C10.5008 6.15888 10.5361 6.09367 10.5846 6.03636C10.6331 5.97906 10.6939 5.93078 10.7634 5.89429C10.8329 5.85779 10.9099 5.83379 10.9899 5.82366C11.0699 5.81353 11.1514 5.81747 11.2296 5.83525C11.3079 5.85302 11.3815 5.88429 11.4462 5.92727L13.9077 7.56364C13.9841 7.61444 14.0462 7.68033 14.0889 7.75607C14.1316 7.83181 14.1538 7.91532 14.1538 8C14.1538 8.08468 14.1316 8.1682 14.0889 8.24394C14.0462 8.31967 13.9841 8.38556 13.9077 8.43636Z" fill="#AD1A33"/>
</svg>
