<svg width="36" height="36" viewBox="0 0 36 36" fill="none" xmlns="http://www.w3.org/2000/svg">
<path d="M33.8216 25.0594C30.4202 19.6276 24.5467 10.4218 20.5251 4.23747C20.2645 3.8136 19.5974 3.99391 19.5974 4.48822L19.5973 31.2861C19.5973 31.6804 19.9249 32 20.3289 32H29.8017C33.2032 32 35.7817 28.1895 33.8216 25.0594Z" fill="#AD1A33"/>
<path d="M2.17837 25.0594C5.57982 19.6276 11.4533 10.4218 15.4749 4.23747C15.7355 3.8136 16.4026 3.99391 16.4026 4.48822V31.2861C16.4026 31.6804 16.0751 32 15.671 32H6.19826C2.79682 32 0.218256 28.1895 2.17837 25.0594Z" fill="#AD1A33"/>
<path d="M33.8216 25.0594C30.4202 19.6276 24.5467 10.4218 20.5251 4.23747C20.2645 3.8136 19.5974 3.99391 19.5974 4.48822L19.5973 31.2861C19.5973 31.6804 19.9249 32 20.3289 32H29.8017C33.2032 32 35.7817 28.1895 33.8216 25.0594Z" stroke="#AD1A33"/>
<path d="M2.17837 25.0594C5.57982 19.6276 11.4533 10.4218 15.4749 4.23747C15.7355 3.8136 16.4026 3.99391 16.4026 4.48822V31.2861C16.4026 31.6804 16.0751 32 15.671 32H6.19826C2.79682 32 0.218256 28.1895 2.17837 25.0594Z" stroke="#AD1A33"/>
</svg>
