<svg width="16" height="16" viewBox="0 0 16 16" fill="none" xmlns="http://www.w3.org/2000/svg">
<path d="M14 6.70867V2.66667C14 2.48986 13.9298 2.32029 13.8047 2.19526C13.6797 2.07024 13.5101 2 13.3333 2H12.6667C11.3473 3.31933 8.86867 4.058 7.33333 4.40867V11.5913C8.86867 11.942 11.3473 12.6807 12.6667 14H13.3333C13.5101 14 13.6797 13.9298 13.8047 13.8047C13.9298 13.6797 14 13.5101 14 13.3333V9.29133C14.2865 9.21767 14.5404 9.05081 14.7217 8.81703C14.9029 8.58325 15.0013 8.29583 15.0013 8C15.0013 7.70417 14.9029 7.41675 14.7217 7.18297C14.5404 6.94919 14.2865 6.78233 14 6.70867ZM3.33333 4.66667C2.97971 4.66667 2.64057 4.80714 2.39052 5.05719C2.14048 5.30724 2 5.64638 2 6V10C2 10.3536 2.14048 10.6928 2.39052 10.9428C2.64057 11.1929 2.97971 11.3333 3.33333 11.3333H4L4.66667 14.6667H6V4.66667H3.33333Z" fill="#AD1A33"/>
</svg>
