<svg width="16" height="16" viewBox="0 0 16 16" fill="none" xmlns="http://www.w3.org/2000/svg">
<path d="M7.99967 1.3335C7.12419 1.3335 6.25729 1.50593 5.44845 1.84097C4.63961 2.176 3.90469 2.66706 3.28563 3.28612C2.03539 4.53636 1.33301 6.23205 1.33301 8.00016C1.33301 9.76827 2.03539 11.464 3.28563 12.7142C3.90469 13.3333 4.63961 13.8243 5.44845 14.1594C6.25729 14.4944 7.12419 14.6668 7.99967 14.6668C9.76778 14.6668 11.4635 13.9644 12.7137 12.7142C13.964 11.464 14.6663 9.76827 14.6663 8.00016C14.6663 7.22683 14.5263 6.46016 14.2597 5.74016L13.193 6.80683C13.2863 7.20016 13.333 7.60016 13.333 8.00016C13.333 9.41465 12.7711 10.7712 11.7709 11.7714C10.7707 12.7716 9.41416 13.3335 7.99967 13.3335C6.58519 13.3335 5.22863 12.7716 4.22844 11.7714C3.22824 10.7712 2.66634 9.41465 2.66634 8.00016C2.66634 6.58567 3.22824 5.22912 4.22844 4.22893C5.22863 3.22873 6.58519 2.66683 7.99967 2.66683C8.39967 2.66683 8.79967 2.7135 9.19301 2.80683L10.2663 1.7335C9.53967 1.4735 8.77301 1.3335 7.99967 1.3335ZM12.6663 1.3335L9.99967 4.00016V5.00016L8.29967 6.70016C8.19967 6.66683 8.09967 6.66683 7.99967 6.66683C7.64605 6.66683 7.30691 6.80731 7.05687 7.05735C6.80682 7.3074 6.66634 7.64654 6.66634 8.00016C6.66634 8.35378 6.80682 8.69292 7.05687 8.94297C7.30691 9.19302 7.64605 9.3335 7.99967 9.3335C8.3533 9.3335 8.69243 9.19302 8.94248 8.94297C9.19253 8.69292 9.33301 8.35378 9.33301 8.00016C9.33301 7.90016 9.33301 7.80016 9.29967 7.70016L10.9997 6.00016H11.9997L14.6663 3.3335H12.6663V1.3335ZM7.99967 4.00016C6.93881 4.00016 5.92139 4.42159 5.17125 5.17174C4.4211 5.92188 3.99967 6.9393 3.99967 8.00016C3.99967 9.06103 4.4211 10.0784 5.17125 10.8286C5.92139 11.5787 6.93881 12.0002 7.99967 12.0002C9.06054 12.0002 10.078 11.5787 10.8281 10.8286C11.5782 10.0784 11.9997 9.06103 11.9997 8.00016H10.6663C10.6663 8.70741 10.3854 9.38568 9.88529 9.88578C9.3852 10.3859 8.70692 10.6668 7.99967 10.6668C7.29243 10.6668 6.61415 10.3859 6.11406 9.88578C5.61396 9.38568 5.33301 8.70741 5.33301 8.00016C5.33301 7.29292 5.61396 6.61464 6.11406 6.11454C6.61415 5.61445 7.29243 5.3335 7.99967 5.3335V4.00016Z" fill="#AD1A33"/>
</svg>
