<svg width="16" height="16" viewBox="0 0 16 16" fill="none" xmlns="http://www.w3.org/2000/svg">
<g clip-path="url(#clip0_532_820)">
<path d="M12.9977 9.32216L14.3084 11.5928C14.3623 11.6863 14.3928 11.7915 14.3971 11.8993C14.4015 12.0072 14.3796 12.1145 14.3334 12.212C14.2872 12.3096 14.218 12.3944 14.1318 12.4594C14.0456 12.5243 13.9449 12.5674 13.8384 12.5848L13.7631 12.5922L13.6884 12.5915L11.7331 12.4648L10.8644 14.2222C10.8172 14.3173 10.748 14.3998 10.6626 14.4629C10.5771 14.5259 10.4778 14.5677 10.373 14.5846C10.2681 14.6016 10.1608 14.5932 10.0598 14.5603C9.95881 14.5275 9.86714 14.4709 9.7924 14.3955L9.73773 14.3328L9.68973 14.2595L8.37773 11.9882C9.30131 11.9304 10.199 11.6597 11.0005 11.1972C11.802 10.7347 12.4856 10.0929 12.9977 9.32216ZM7.6204 11.9882L6.30973 14.2602C6.25662 14.3522 6.18229 14.4302 6.09294 14.4878C6.00358 14.5453 5.90178 14.5806 5.79601 14.5909C5.69023 14.6011 5.58354 14.5859 5.48481 14.5466C5.38609 14.5073 5.29818 14.445 5.2284 14.3648L5.17773 14.2982L5.13506 14.2222L4.26573 12.4655L2.31173 12.5922C2.2041 12.5991 2.09639 12.5798 1.99783 12.536C1.89927 12.4922 1.8128 12.4251 1.74582 12.3406C1.67885 12.2561 1.63336 12.1566 1.61326 12.0506C1.59315 11.9446 1.59903 11.8354 1.6304 11.7322L1.65706 11.6608L1.6904 11.5942L3.0024 9.3215C3.51418 10.0922 4.19738 10.7341 4.99853 11.1968C5.79968 11.6596 6.69704 11.93 7.6204 11.9882ZM8.0004 1.3335L8.1604 1.33616C9.36967 1.37765 10.5156 1.8872 11.3563 2.75734C12.1971 3.62748 12.6671 4.79018 12.6671 6.00016L12.6651 6.12883L12.6604 6.25683L12.6484 6.42016L12.6311 6.5815L12.6151 6.70016C12.5712 6.98793 12.5004 7.27094 12.4037 7.5455L12.3264 7.75083L12.2244 7.98283C11.847 8.78682 11.248 9.46643 10.4978 9.94186C9.74758 10.4173 8.87729 10.6688 7.98912 10.6668C7.10095 10.6649 6.23178 10.4095 5.48368 9.9308C4.73557 9.45206 4.13959 8.76981 3.76573 7.96416L3.67906 7.76616L3.6444 7.6775L3.59106 7.53283L3.52773 7.33683C3.50511 7.26093 3.48444 7.18446 3.46573 7.1075L3.42573 6.92683L3.39306 6.74616L3.37973 6.6535L3.35373 6.43816L3.33773 6.19483L3.33373 6.00016C3.33371 4.79018 3.80366 3.62748 4.64445 2.75734C5.48523 1.8872 6.63112 1.37765 7.8404 1.33616L8.0004 1.3335Z" fill="#AD1A33"/>
</g>
<defs>
<clipPath id="clip0_532_820">
<rect width="16" height="16" fill="white"/>
</clipPath>
</defs>
</svg>
